<svg width="23" height="22" viewBox="0 0 23 22" fill="none" xmlns="http://www.w3.org/2000/svg">
<path d="M11.4008 0.857178C12.0059 0.857339 12.6041 0.985093 13.1564 1.2321C13.7087 1.47911 14.2027 1.83981 14.6062 2.29068C15.0096 2.74154 15.3135 3.27242 15.4979 3.84866C15.6822 4.42491 15.743 5.03356 15.6763 5.63489C16.21 5.36085 16.7951 5.20145 17.3941 5.16694C17.9931 5.13242 18.5927 5.22355 19.1543 5.43447C19.716 5.6454 20.2274 5.97145 20.6556 6.3917C21.0838 6.81195 21.4194 7.31711 21.6408 7.87473C21.8622 8.43235 21.9645 9.03011 21.9413 9.62963C21.918 10.2292 21.7696 10.8172 21.5056 11.3559C21.2416 11.8947 20.8679 12.3723 20.4084 12.7581C19.9489 13.1439 19.4138 13.4293 18.8374 13.596C19.2142 14.0863 19.4809 14.652 19.6194 15.2546C19.7578 15.8572 19.7648 16.4826 19.6398 17.0881C19.5147 17.6936 19.2607 18.2651 18.8949 18.7636C18.5291 19.2621 18.0602 19.676 17.5201 19.9769C16.9799 20.2779 16.3813 20.4589 15.7649 20.5076C15.1485 20.5563 14.5289 20.4716 13.9481 20.2593C13.3674 20.047 12.8393 19.712 12.3997 19.2771C11.9602 18.8423 11.6195 18.3178 11.4008 17.7395C11.1822 18.3178 10.8415 18.8423 10.402 19.2771C9.96238 19.712 9.43425 20.047 8.85354 20.2593C8.27283 20.4716 7.65318 20.5563 7.03679 20.5076C6.4204 20.4589 5.82176 20.2779 5.28163 19.9769C4.7415 19.676 4.27257 19.2621 3.90678 18.7636C3.54099 18.2651 3.28694 17.6936 3.16193 17.0881C3.03691 16.4826 3.04387 15.8572 3.18232 15.2546C3.32078 14.652 3.58749 14.0863 3.96427 13.596C3.38793 13.4293 2.85283 13.1439 2.39333 12.7581C1.93383 12.3723 1.56008 11.8947 1.29609 11.3559C1.0321 10.8172 0.883699 10.2292 0.860419 9.62963C0.837138 9.03011 0.939491 8.43235 1.16091 7.87473C1.38232 7.31711 1.71791 6.81195 2.14611 6.3917C2.57431 5.97145 3.08567 5.6454 3.64734 5.43447C4.20901 5.22355 4.80859 5.13242 5.40757 5.16694C6.00655 5.20145 6.59169 5.36085 7.12542 5.63489C7.05865 5.03356 7.11944 4.42491 7.30383 3.84866C7.48823 3.27242 7.79207 2.74154 8.19553 2.29068C8.599 1.83981 9.09301 1.47911 9.64531 1.2321C10.1976 0.985093 10.7958 0.857339 11.4008 0.857178Z" stroke="#0A0E15" stroke-width="1.71429" stroke-linecap="round" stroke-linejoin="round"/>
<path d="M11.4008 13.8514C13.0465 13.8514 13.9722 12.9256 13.9722 11.2799C13.9722 9.63421 13.0465 8.7085 11.4008 8.7085C9.75506 8.7085 8.82935 9.63421 8.82935 11.2799C8.82935 12.9256 9.75506 13.8514 11.4008 13.8514Z" stroke="#0A0E15" stroke-width="1.71429" stroke-linecap="round" stroke-linejoin="round"/>
</svg>
