<svg width="22" height="22" viewBox="0 0 22 22" fill="none" xmlns="http://www.w3.org/2000/svg">
<path fill-rule="evenodd" clip-rule="evenodd" d="M13.5071 1.37146C14.3853 0.493329 15.5763 0 16.8181 0C18.06 0 19.251 0.493329 20.1291 1.37146C21.0073 2.24959 21.5006 3.4406 21.5006 4.68246C21.5006 5.92433 21.0073 7.11533 20.1291 7.99346L10.6431 17.4795C10.1011 18.0215 9.78314 18.3395 9.42714 18.6165C9.00847 18.9445 8.55847 19.2228 8.07714 19.4515C7.67114 19.6445 7.24314 19.7875 6.51714 20.0295L3.18514 21.1395L2.38314 21.4075C2.06417 21.5139 1.72184 21.5295 1.39454 21.4523C1.06724 21.3751 0.76792 21.2082 0.530137 20.9705C0.292354 20.7327 0.125514 20.4334 0.0483267 20.1061C-0.0288606 19.7788 -0.013343 19.4364 0.0931392 19.1175L1.47114 14.9845C1.71314 14.2575 1.85614 13.8295 2.04914 13.4225C2.27847 12.9425 2.55681 12.4925 2.88414 12.0725C3.16014 11.7185 3.47914 11.3995 4.02114 10.8575L13.5071 1.37146ZM3.15014 19.5715L5.99114 18.6235C6.78214 18.3595 7.11814 18.2465 7.43114 18.0975C7.81247 17.9148 8.17014 17.6938 8.50414 17.4345C8.77714 17.2205 9.02914 16.9715 9.61914 16.3815L17.1891 8.81146C16.1512 8.44368 15.2091 7.84771 14.4321 7.06746C13.6526 6.29029 13.0573 5.34816 12.6901 4.31046L5.12014 11.8805C4.53014 12.4695 4.28014 12.7205 4.06714 12.9945C3.80714 13.3278 3.58614 13.6855 3.40414 14.0675C3.25514 14.3805 3.14214 14.7165 2.87814 15.5075L1.93014 18.3505L3.15014 19.5715ZM13.9051 3.09346C13.9401 3.26846 13.9971 3.50646 14.0941 3.78346C14.3867 4.62051 14.8654 5.38025 15.4941 6.00546C16.1191 6.6341 16.8784 7.11278 17.7151 7.40546C17.9931 7.50246 18.2311 7.55946 18.4061 7.59446L19.0681 6.93246C19.6614 6.335 19.9937 5.52676 19.9923 4.68477C19.9908 3.84278 19.6557 3.0357 19.0603 2.44032C18.4649 1.84494 17.6578 1.50981 16.8158 1.50834C15.9738 1.50687 15.1656 1.83917 14.5681 2.43246L13.9051 3.09346Z" fill="#0A0E15"/>
</svg>
