<?xml version="1.0" encoding="UTF-8"?>
<svg id="uuid-8de156c3-9c6f-4d11-b432-2d67b9233500" data-name="Layer 2" xmlns="http://www.w3.org/2000/svg" viewBox="0 0 644.48 319.92">
  <defs>
    <style>
      .uuid-d46b44f5-8eeb-40f9-a996-a502ca786be4 {
        fill: #292828;
      }

      .uuid-95222494-b956-45fd-baf8-f4ff2d38e1cd {
        fill: none;
        stroke: #000;
        stroke-miterlimit: 10;
        stroke-width: 6px;
      }
    </style>
  </defs>
  <g id="uuid-a7c08a90-17bf-4f87-b15b-65aa8c68c121" data-name="Layer 1">
    <g>
      <path class="uuid-d46b44f5-8eeb-40f9-a996-a502ca786be4" d="M308.23,107.45c-.85-4.27-4.97-6.31-8.73-7.26-4.69-1.19-5.95,2.1-5.26-5.24,9.4,1.87,21.34-5.62,29.61-5.96,5.37-.22,2.4,4.23,2.32,7.42-.85,33.87-2.54,77.88.06,111.03.92,11.78,2.92,16.21,15.98,15.52v3.99c-11.41-.39-22.71.3-33.97,2.01l-.5-13c-15.71,15.13-38.77,20.16-56.93,5.97-13.07-10.21-16.78-25.47-15.55-41.52,2.65-34.73,47.02-54.32,72.97-29.46v-43.5ZM263.63,154.31c-13.95,14.68-12.35,49.16,4.7,61.08,11.9,8.32,32.36,6.3,38.94-7.89,3.14-6.77,2.86-36.17.45-43.53-6.27-19.16-30.2-24.27-44.09-9.65Z"/>
      <path class="uuid-d46b44f5-8eeb-40f9-a996-a502ca786be4" d="M208.64,218.64c6.22,5.8,11.83-.97,13.15-.69,4.5.96-1.15,6.49-3.14,7.84-11.28,7.59-24.94,4.38-29.32-8.83-4.76,1.81-8.56,6.46-13.6,8.87-14.58,7-41.27,6.15-42.27-14.52-1.2-24.79,37.88-25.33,53.4-33.34,3.88-16.48-2.68-37.34-23.21-29.24-9.81,3.87-7.59,12.87-11.31,15.68-1.26.95-16.33,4.16-16.94,3.54-.02-9.88,12.15-18.08,20.3-22.17,13.94-7,37.69-10.7,46.84,5.47,6.13,10.83,1.35,43.89,2.8,58.2.26,2.62,1.39,7.42,3.29,9.2ZM187.35,182.95c-13.14,4.01-40.05,11.26-32.76,30.29,4.57,11.91,20.99,10.25,28.75,2.2.63-.66,4-5.63,4-5.99v-26.5Z"/>
      <path class="uuid-d46b44f5-8eeb-40f9-a996-a502ca786be4" d="M511.03,178.95h-63.94c.2,24.71,17.14,44.18,43.18,36.72,6.18-1.77,10.52-5.74,14.8-10.24.92-.97,2.07-5.34,4.54-.47.99,1.96-6.73,11.77-8.52,13.53-36.96,36.38-95.57-14.23-64.41-59.47,22.52-32.7,75.3-22.19,74.36,19.93ZM448.09,173.95h42.46c5.31,0-.79-22.49-9.95-27.05-17.34-8.63-33.53,10.58-32.51,27.05Z"/>
      <path class="uuid-d46b44f5-8eeb-40f9-a996-a502ca786be4" d="M385.15,117.95v20.5c0,.5-.1,1.32-.09,3.5h30.06c.17,1.41.27,7-1.5,7h-29.47v57.5c0,.8,2,7.37,2.58,8.42,4.3,7.78,16.83,6.45,23.34,2.51,1.1-.67,5.86-6.45,7.06-1.92s-14.91,13.21-18.92,14.04c-9.97,2.07-23.06,1.08-28.46-8.63-.87-1.56-3.57-8.2-3.57-9.43v-62.5c-1.96.23-14.44-.49-14.97-1.03-.14-.14-.14-3.8,0-3.95.28-.29,5.51-.43,7.99-1.51,4.05-1.77,13.11-10.38,15.95-14.03,3.2-4.11,4.42-11.42,10.01-10.48Z"/>
    </g>
    <rect class="uuid-95222494-b956-45fd-baf8-f4ff2d38e1cd" x="3" y="3" width="638.48" height="313.92"/>
  </g>
</svg>